HIERARCHY
ROOT Hips
{
	OFFSET 0.125245 88.705444 4.790124
	CHANNELS 6 Xposition Yposition Zposition Zrotation Yrotation Xrotation 
	JOINT Spine
	{
		OFFSET -0.000000 8.814246 -2.080107
		CHANNELS 3 Zrotation Yrotation Xrotation
		JOINT Spine1
		{
			OFFSET 0.000000 8.844141 0.000000
			CHANNELS 3 Zrotation Yrotation Xrotation
			JOINT Spine2
			{
				OFFSET 0.000000 11.682268 -0.000000
				CHANNELS 3 Zrotation Yrotation Xrotation
				JOINT Spine3
				{
					OFFSET -0.000000 11.746700 -0.000000
					CHANNELS 3 Zrotation Yrotation Xrotation
					JOINT Neck
					{
						OFFSET 0.000000 17.658264 -0.000000
						CHANNELS 3 Zrotation Yrotation Xrotation
						JOINT Neck1
						{
							OFFSET -0.000000 5.101515 -0.000000
							CHANNELS 3 Zrotation Yrotation Xrotation
							JOINT Head
							{
								OFFSET 0.000000 5.101515 -0.000000
								CHANNELS 3 Zrotation Yrotation Xrotation
								JOINT HeadEnd
								{
									OFFSET 0.000000 11.655085 0.000000
									CHANNELS 3 Zrotation Yrotation Xrotation
									End Site
									{
										OFFSET 0.000000 0.000000 0.000000
									}
								}
							}
						}
					}
					JOINT RightShoulder
					{
						OFFSET -2.625389 11.175210 0.000000
						CHANNELS 3 Zrotation Yrotation Xrotation
						JOINT RightArm
						{
							OFFSET -0.000000 10.434715 -0.000000
							CHANNELS 3 Zrotation Yrotation Xrotation
							JOINT RightForeArm
							{
								OFFSET 0.000000 29.628420 -0.000000
								CHANNELS 3 Zrotation Yrotation Xrotation
								JOINT RightHand
								{
									OFFSET 0.000000 22.857611 -0.000000
									CHANNELS 3 Zrotation Yrotation Xrotation
									JOINT RightHandThumb1
									{
										OFFSET -2.867323 3.959563 2.944291
										CHANNELS 3 Zrotation Yrotation Xrotation
										JOINT RightHandThumb2
										{
											OFFSET 0.000000 3.350399 -0.000000
											CHANNELS 3 Zrotation Yrotation Xrotation
											JOINT RightHandThumb3
											{
												OFFSET -0.000000 3.756509 0.000000
												CHANNELS 3 Zrotation Yrotation Xrotation
												JOINT RightHandThumb4
												{
													OFFSET 0.000000 3.147345 -0.000000
													CHANNELS 3 Zrotation Yrotation Xrotation
													End Site
													{
														OFFSET 0.000000 0.000000 0.000000
													}
												}
											}
										}
									}
									JOINT RightHandIndex1
									{
										OFFSET -0.086752 10.030893 2.345280
										CHANNELS 3 Zrotation Yrotation Xrotation
										JOINT RightHandIndex2
										{
											OFFSET 0.000000 4.061090 -0.000000
											CHANNELS 3 Zrotation Yrotation Xrotation
											JOINT RightHandIndex3
											{
												OFFSET -0.000000 3.248873 -0.000000
												CHANNELS 3 Zrotation Yrotation Xrotation
												JOINT RightHandIndex4
												{
													OFFSET -0.000000 2.639709 -0.000000
													CHANNELS 3 Zrotation Yrotation Xrotation
													End Site
													{
														OFFSET 0.000000 0.000000 0.000000
													}
												}
											}
										}
									}
									JOINT RightHandMiddle1
									{
										OFFSET 0.104102 9.502952 0.006768
										CHANNELS 3 Zrotation Yrotation Xrotation
										JOINT RightHandMiddle2
										{
											OFFSET -0.000000 4.568727 -0.000000
											CHANNELS 3 Zrotation Yrotation Xrotation
											JOINT RightHandMiddle3
											{
												OFFSET 0.000000 3.654981 -0.000000
												CHANNELS 3 Zrotation Yrotation Xrotation
												JOINT RightHandMiddle4
												{
													OFFSET 0.000000 2.741236 -0.000000
													CHANNELS 3 Zrotation Yrotation Xrotation
													End Site
													{
														OFFSET 0.000000 0.000000 0.000000
													}
												}
											}
										}
									}
									JOINT RightHandRing1
									{
										OFFSET 0.086752 8.921708 -2.267442
										CHANNELS 3 Zrotation Yrotation Xrotation
										JOINT RightHandRing2
										{
											OFFSET 0.000000 4.061090 -0.000000
											CHANNELS 3 Zrotation Yrotation Xrotation
											JOINT RightHandRing3
											{
												OFFSET 0.000000 3.654981 -0.000000
												CHANNELS 3 Zrotation Yrotation Xrotation
												JOINT RightHandRing4
												{
													OFFSET -0.000000 2.741236 0.000000
													CHANNELS 3 Zrotation Yrotation Xrotation
													End Site
													{
														OFFSET 0.000000 0.000000 0.000000
													}
												}
											}
										}
									}
									JOINT RightHandPinky1
									{
										OFFSET -0.173504 7.976997 -4.467199
										CHANNELS 3 Zrotation Yrotation Xrotation
										JOINT RightHandPinky2
										{
											OFFSET 0.000000 3.350399 -0.000000
											CHANNELS 3 Zrotation Yrotation Xrotation
											JOINT RightHandPinky3
											{
												OFFSET 0.000000 2.842763 -0.000000
												CHANNELS 3 Zrotation Yrotation Xrotation
												JOINT RightHandPinky4
												{
													OFFSET 0.000000 2.639709 0.000000
													CHANNELS 3 Zrotation Yrotation Xrotation
													End Site
													{
														OFFSET 0.000000 0.000000 0.000000
													}
												}
											}
										}
									}
									JOINT RightForeArmEnd
									{
										OFFSET 0.000000 0.000000 0.000000
										CHANNELS 3 Zrotation Yrotation Xrotation
										End Site
										{
											OFFSET 0.000000 0.000000 0.000000
										}
									}
								}
								JOINT RightArmEnd
								{
									OFFSET 0.000000 0.000000 0.000000
									CHANNELS 3 Zrotation Yrotation Xrotation
									End Site
									{
										OFFSET 0.000000 0.000000 0.000000
									}
								}
							}
						}
					}
					JOINT LeftShoulder
					{
						OFFSET 2.625389 11.175210 -0.000000
						CHANNELS 3 Zrotation Yrotation Xrotation
						JOINT LeftArm
						{
							OFFSET -0.000000 10.813635 -0.000000
							CHANNELS 3 Zrotation Yrotation Xrotation
							JOINT LeftForeArm
							{
								OFFSET -0.000000 28.724781 0.000000
								CHANNELS 3 Zrotation Yrotation Xrotation
								JOINT LeftHand
								{
									OFFSET 0.644384 25.716167 -0.328871
									CHANNELS 3 Zrotation Yrotation Xrotation
									JOINT LeftHandThumb1
									{
										OFFSET 2.867323 3.959563 2.944291
										CHANNELS 3 Zrotation Yrotation Xrotation
										JOINT LeftHandThumb2
										{
											OFFSET 0.000000 3.350399 -0.000000
											CHANNELS 3 Zrotation Yrotation Xrotation
											JOINT LeftHandThumb3
											{
												OFFSET -0.000000 3.756509 -0.000000
												CHANNELS 3 Zrotation Yrotation Xrotation
												JOINT LeftHandThumb4
												{
													OFFSET 0.000000 3.100000 -0.000000
													CHANNELS 3 Zrotation Yrotation Xrotation
													End Site
													{
														OFFSET 0.000000 0.000000 0.000000
													}
												}
											}
										}
									}
									JOINT LeftHandIndex1
									{
										OFFSET 0.086752 10.030893 2.345280
										CHANNELS 3 Zrotation Yrotation Xrotation
										JOINT LeftHandIndex2
										{
											OFFSET -0.000000 4.061090 0.000000
											CHANNELS 3 Zrotation Yrotation Xrotation
											JOINT LeftHandIndex3
											{
												OFFSET 0.000000 3.248873 0.000000
												CHANNELS 3 Zrotation Yrotation Xrotation
												JOINT LeftHandIndex4
												{
													OFFSET -0.000000 2.639709 -0.000000
													CHANNELS 3 Zrotation Yrotation Xrotation
													End Site
													{
														OFFSET 0.000000 0.000000 0.000000
													}
												}
											}
										}
									}
									JOINT LeftHandMiddle1
									{
										OFFSET -0.104102 9.502952 0.006768
										CHANNELS 3 Zrotation Yrotation Xrotation
										JOINT LeftHandMiddle2
										{
											OFFSET -0.000000 4.568727 -0.000000
											CHANNELS 3 Zrotation Yrotation Xrotation
											JOINT LeftHandMiddle3
											{
												OFFSET -0.000000 3.654981 -0.000000
												CHANNELS 3 Zrotation Yrotation Xrotation
												JOINT LeftHandMiddle4
												{
													OFFSET -0.000000 2.741236 -0.000000
													CHANNELS 3 Zrotation Yrotation Xrotation
													End Site
													{
														OFFSET 0.000000 0.000000 0.000000
													}
												}
											}
										}
									}
									JOINT LeftHandRing1
									{
										OFFSET -0.086752 8.921708 -2.267442
										CHANNELS 3 Zrotation Yrotation Xrotation
										JOINT LeftHandRing2
										{
											OFFSET 0.000000 4.061090 -0.000000
											CHANNELS 3 Zrotation Yrotation Xrotation
											JOINT LeftHandRing3
											{
												OFFSET -0.000000 3.654981 -0.000000
												CHANNELS 3 Zrotation Yrotation Xrotation
												JOINT LeftHandRing4
												{
													OFFSET 0.000000 2.741236 0.000000
													CHANNELS 3 Zrotation Yrotation Xrotation
													End Site
													{
														OFFSET 0.000000 0.000000 0.000000
													}
												}
											}
										}
									}
									JOINT LeftHandPinky1
									{
										OFFSET 0.173504 7.976997 -4.467199
										CHANNELS 3 Zrotation Yrotation Xrotation
										JOINT LeftHandPinky2
										{
											OFFSET -0.000000 3.350399 -0.000000
											CHANNELS 3 Zrotation Yrotation Xrotation
											JOINT LeftHandPinky3
											{
												OFFSET -0.000000 2.842763 -0.000000
												CHANNELS 3 Zrotation Yrotation Xrotation
												JOINT LeftHandPinky4
												{
													OFFSET -0.000000 2.639709 0.000000
													CHANNELS 3 Zrotation Yrotation Xrotation
													End Site
													{
														OFFSET 0.000000 0.000000 0.000000
													}
												}
											}
										}
									}
									JOINT LeftForeArmEnd
									{
										OFFSET 0.000000 0.000000 0.000000
										CHANNELS 3 Zrotation Yrotation Xrotation
										End Site
										{
											OFFSET 0.000000 0.000000 0.000000
										}
									}
								}
								JOINT LeftArmEnd
								{
									OFFSET 0.000000 0.000000 0.000000
									CHANNELS 3 Zrotation Yrotation Xrotation
									End Site
									{
										OFFSET 0.000000 0.000000 0.000000
									}
								}
							}
						}
					}
				}
			}
		}
	}
	JOINT RightUpLeg
	{
		OFFSET -11.289943 0.000000 -0.000000
		CHANNELS 3 Zrotation Yrotation Xrotation
		JOINT RightLeg
		{
			OFFSET -0.000000 -38.200325 -0.000000
			CHANNELS 3 Zrotation Yrotation Xrotation
			JOINT RightFoot
			{
				OFFSET -0.000000 -39.900856 0.000000
				CHANNELS 3 Zrotation Yrotation Xrotation
				JOINT RightToeBase
				{
					OFFSET -0.000000 -0.000000 15.261641
					CHANNELS 3 Zrotation Yrotation Xrotation
					JOINT RightToeBaseEnd
					{
						OFFSET -0.000000 0.000000 7.370709
						CHANNELS 3 Zrotation Yrotation Xrotation
						End Site
						{
							OFFSET 0.000000 0.000000 0.000000
						}
					}
				}
				JOINT RightLegEnd
				{
					OFFSET 0.000000 0.000000 0.000000
					CHANNELS 3 Zrotation Yrotation Xrotation
					End Site
					{
						OFFSET 0.000000 0.000000 0.000000
					}
				}
			}
			JOINT RightUpLegEnd
			{
				OFFSET 0.000000 0.000000 0.000000
				CHANNELS 3 Zrotation Yrotation Xrotation
				End Site
				{
					OFFSET 0.000000 0.000000 0.000000
				}
			}
		}
	}
	JOINT LeftUpLeg
	{
		OFFSET 11.315661 -0.000000 -0.000000
		CHANNELS 3 Zrotation Yrotation Xrotation
		JOINT LeftLeg
		{
			OFFSET -0.000000 -38.200325 0.000000
			CHANNELS 3 Zrotation Yrotation Xrotation
			JOINT LeftFoot
			{
				OFFSET 0.000000 -39.900856 0.000000
				CHANNELS 3 Zrotation Yrotation Xrotation
				JOINT LeftToeBase
				{
					OFFSET -0.000000 -0.000000 15.261641
					CHANNELS 3 Zrotation Yrotation Xrotation
					JOINT LeftToeBaseEnd
					{
						OFFSET -0.000000 0.000000 7.539996
						CHANNELS 3 Zrotation Yrotation Xrotation
						End Site
						{
							OFFSET 0.000000 0.000000 0.000000
						}
					}
				}
				JOINT LeftLegEnd
				{
					OFFSET 0.000000 0.000000 0.000000
					CHANNELS 3 Zrotation Yrotation Xrotation
					End Site
					{
						OFFSET 0.000000 0.000000 0.000000
					}
				}
			}
			JOINT LeftUpLegEnd
			{
				OFFSET 0.000000 0.000000 0.000000
				CHANNELS 3 Zrotation Yrotation Xrotation
				End Site
				{
					OFFSET 0.000000 0.000000 0.000000
				}
			}
		}
	}
}
MOTION
Frames: 4
Frame Time: 0.016667
0.002347 88.335457 4.709890 0.545522 -0.811397 -14.073798 1.248092 -0.003203 8.880118 0.834192 -0.089669 2.233510 -1.455938 0.910003 7.383760 -1.220051 0.392621 4.730812 -0.532357 0.381804 2.430299 0.302899 0.549583 -4.706051 -0.401690 -1.279175 -19.894068 0.000000 0.000000 0.000000 88.176048 0.174345 10.485048 59.814175 -14.692238 5.164771 -1.003167 16.184767 95.852509 -6.444186 10.837464 4.747387 10.720964 -1.920046 39.735088 -0.000008 0.000006 -26.414803 -0.000011 0.000044 -18.400465 0.000002 -0.000002 -0.000018 14.027239 -0.019433 -4.743599 9.120450 -0.084850 -0.188856 9.068212 -0.068392 -0.198596 -0.000009 0.000017 -0.000011 14.456950 -0.024812 -7.395626 8.845553 -0.041746 -0.076343 9.144531 -0.019593 -0.052419 0.000003 0.000107 0.000003 17.152075 0.028178 -11.101483 10.128339 0.076716 0.073820 10.186621 0.035591 0.076554 0.000011 0.000429 -0.000005 17.257399 0.085865 -15.229533 10.635830 0.220728 0.323278 10.518140 0.122262 0.245450 0.000051 0.000005 -0.000001 0.000000 0.000000 0.000000 0.000000 0.000000 0.000000 -86.083488 -0.283159 4.724417 -72.805473 3.976833 -11.276512 0.300078 -15.902991 108.682877 -4.830767 -25.431328 6.492296 -7.301027 1.312523 41.465820 0.000013 0.000015 -18.239368 0.000056 -0.000007 -12.807022 0.000094 0.000018 0.000805 2.320860 -0.014270 3.906938 -3.451024 -0.060496 -0.042654 -3.680912 -0.040948 -0.027027 -0.000003 0.000445 -0.000004 0.406110 -0.002612 -1.827954 -4.097090 -0.037045 -0.036949 -3.882767 -0.009746 -0.022119 0.000255 -0.000002 0.000127 -5.643256 0.047333 -9.861805 -5.921972 0.074469 0.010130 -5.744896 0.024958 0.013095 -0.001268 0.000016 0.000004 -10.010567 0.121970 -18.114336 -8.427743 0.155133 0.188235 -8.309141 0.072428 0.136065 0.000421 0.000011 -0.000045 0.000000 0.000000 0.000000 0.000000 0.000000 0.000000 -5.852847 -12.561452 19.831656 -0.139181 -1.105841 4.656293 1.429528 -9.175853 15.555279 -1.397892 1.253682 -16.744400 0.000000 0.000000 0.000000 0.000000 0.000000 0.000000 0.000000 0.000000 0.000000 3.067655 -1.500252 13.401481 0.144103 0.712850 10.174926 -0.667035 2.538215 16.066538 0.548953 -0.907704 -19.738342 0.000000 0.000000 0.000000 0.000000 0.000000 0.000000 0.000000 0.000000 0.000000 
-0.001204 88.330338 4.717357 0.590668 -0.717037 -14.102088 1.232028 0.004770 8.879035 0.831865 -0.079866 2.202936 -1.493900 0.960040 7.400168 -1.224361 0.409162 4.725017 -0.619557 0.402289 2.512803 0.309065 0.515474 -4.680314 -0.381402 -1.271164 -19.971060 0.000000 0.000000 0.000000 88.215027 0.179988 10.480133 59.738541 -14.817917 5.113097 -1.013507 16.110138 95.719276 -6.240928 10.094045 4.067176 10.374168 -1.889025 39.889954 -0.000008 0.000005 -25.591768 -0.000011 0.000044 -17.818178 0.000003 -0.000002 -0.000017 12.483452 -0.019020 -4.254670 8.157529 -0.091377 -0.149417 8.106317 -0.075017 -0.161603 -0.000009 0.000016 -0.000010 12.907818 -0.024748 -7.174096 7.895620 -0.044752 -0.059900 8.188323 -0.022303 -0.037954 0.000003 0.000105 0.000003 15.515611 0.029363 -11.266220 9.115533 0.081399 0.050983 9.174186 0.039623 0.059311 0.000011 0.000498 -0.000006 15.669304 0.091997 -15.717823 9.673281 0.234915 0.264651 9.556481 0.134534 0.195862 0.000012 0.000005 -0.000001 0.000000 0.000000 0.000000 0.000000 0.000000 0.000000 -86.064072 -0.297429 4.696881 -72.653084 4.086141 -11.022714 0.385776 -15.747898 109.264404 -4.554887 -22.967239 6.447783 -6.808398 1.253790 41.688000 0.000013 0.000014 -17.030134 0.000056 -0.000008 -11.968616 0.000036 0.000018 0.000856 4.751040 -0.013419 4.848383 -2.833230 -0.063156 -0.065316 -3.065397 -0.044012 -0.047984 -0.000004 0.000449 -0.000004 2.839067 -0.003394 -1.219948 -3.442245 -0.037993 -0.047439 -3.225269 -0.011081 -0.031245 0.000303 -0.000001 0.000125 -2.932314 0.048251 -9.779599 -5.014436 0.077801 0.029393 -4.841978 0.027643 0.027557 -0.001256 0.000016 0.000003 -7.292734 0.130204 -18.470196 -7.378652 0.165345 0.251898 -7.273258 0.081242 0.187021 0.000415 0.000011 -0.000045 0.000000 0.000000 0.000000 0.000000 0.000000 0.000000 -5.946219 -12.663786 19.882046 -0.140950 -1.105626 4.665361 1.460918 -9.215707 15.502151 -1.401167 1.252510 -16.712149 0.000000 0.000000 0.000000 0.000000 0.000000 0.000000 0.000000 0.000000 0.000000 3.004529 -1.577832 13.398257 0.143357 0.714620 10.130678 -0.640187 2.417588 16.105211 0.550225 -0.915388 -19.738152 0.000000 0.000000 0.000000 0.000000 0.000000 0.000000 0.000000 0.000000 0.000000 
-0.006409 88.326744 4.727991 0.632691 -0.607222 -14.132014 1.217184 0.009071 8.881412 0.821799 -0.071259 2.158949 -1.517946 0.995568 7.416852 -1.227712 0.419144 4.724234 -0.719716 0.443466 2.606283 0.312562 0.494167 -4.644461 -0.365422 -1.262043 -20.043297 0.000000 0.000000 0.000000 88.257011 0.181363 10.461070 59.655258 -14.977805 5.055261 -1.035075 15.986742 95.582253 -6.144565 9.152980 3.326952 9.910070 -1.846842 40.096867 -0.000008 0.000004 -24.487188 -0.000010 0.000044 -17.040686 0.000004 -0.000001 -0.000017 10.383873 -0.018489 -3.582922 6.827236 -0.099211 -0.094592 6.777412 -0.082826 -0.110510 -0.000010 0.000015 -0.000009 10.802366 -0.024444 -6.852285 6.589578 -0.048297 -0.037769 6.873999 -0.025531 -0.018902 0.000003 0.000104 0.000003 13.305200 0.030665 -11.440876 7.748918 0.086566 0.021649 7.805857 0.044189 0.037013 0.000012 0.000560 -0.000006 13.553577 0.100191 -16.318981 8.392025 0.249808 0.191966 8.277491 0.147850 0.134390 -0.000030 0.000005 -0.000001 0.000000 0.000000 0.000000 0.000000 0.000000 0.000000 -86.056343 -0.312392 4.664923 -72.491913 4.184915 -10.771622 0.478913 -15.541802 109.769958 -4.057171 -20.236504 6.324286 -6.296985 1.191374 41.918274 0.000014 0.000014 -15.772851 0.000055 -0.000008 -11.095626 0.000001 0.000018 0.000948 7.270895 -0.012768 5.855794 -2.320913 -0.064063 -0.076544 -2.553053 -0.045298 -0.059002 -0.000005 0.000453 -0.000004 5.377844 -0.004360 -0.547417 -2.891598 -0.038148 -0.053375 -2.674332 -0.011836 -0.036512 0.000357 -0.000001 0.000123 -0.079082 0.049306 -9.639783 -4.203969 0.079712 0.041741 -4.037482 0.029396 0.036924 -0.001236 0.000017 0.000003 -4.406374 0.138753 -18.762676 -6.394940 0.172239 0.293371 -6.305435 0.087195 0.221020 0.000411 0.000011 -0.000044 0.000000 0.000000 0.000000 0.000000 0.000000 0.000000 -6.040418 -12.771827 19.947655 -0.142362 -1.103622 4.654809 1.492455 -9.260946 15.461382 -1.405946 1.250610 -16.679047 0.000000 0.000000 0.000000 0.000000 0.000000 0.000000 0.000000 0.000000 0.000000 2.942763 -1.660724 13.395440 0.142877 0.718150 10.093064 -0.616001 2.286209 16.133188 0.549824 -0.924389 -19.734919 0.000000 0.000000 0.000000 0.000000 0.000000 0.000000 0.000000 0.000000 0.000000 
-0.013418 88.324699 4.740227 0.668920 -0.485889 -14.162485 1.203815 0.008479 8.890209 0.800189 -0.063893 2.100312 -1.522360 1.007370 7.435376 -1.225964 0.419004 4.721941 -0.827613 0.502549 2.702223 0.312834 0.489030 -4.601898 -0.355141 -1.252459 -20.105314 0.000000 0.000000 0.000000 88.310127 0.178220 10.427773 59.544765 -15.184968 5.007731 -1.067683 15.823149 95.440109 -6.173406 7.996676 2.539360 9.341273 -1.792850 40.351025 -0.000008 0.000003 -23.128368 -0.000010 0.000045 -16.087677 0.000004 -0.000000 -0.000016 7.765728 -0.017713 -2.736344 5.191224 -0.106810 -0.029066 5.143145 -0.090293 -0.049572 -0.000010 0.000015 -0.000008 8.170621 -0.023875 -6.426919 4.987413 -0.051801 -0.011751 5.260791 -0.028753 0.003198 0.000003 0.000103 0.000004 10.536003 0.031942 -11.608273 6.080141 0.091312 -0.012336 6.134037 0.048646 0.011050 0.000012 0.000611 -0.000006 10.920297 0.109859 -17.007277 6.831237 0.263357 0.108337 6.722064 0.160466 0.063914 -0.000076 0.000005 -0.000001 0.000000 0.000000 0.000000 0.000000 0.000000 0.000000 -86.060837 -0.328380 4.629955 -72.299583 4.289234 -10.527028 0.571806 -15.294690 110.158272 -3.300706 -17.293026 6.062407 -5.786523 1.126620 42.148907 0.000015 0.000013 -14.513867 0.000054 -0.000009 -10.221339 -0.000009 0.000018 0.001081 9.813693 -0.012281 6.891228 -1.927053 -0.062629 -0.074776 -2.155851 -0.044152 -0.058795 -0.000006 0.000457 -0.000004 7.951793 -0.005472 0.162847 -2.458724 -0.037326 -0.054055 -2.243304 -0.011844 -0.037335 0.000409 -0.000000 0.000122 2.832519 0.050490 -9.448378 -3.511047 0.079860 0.046155 -3.351191 0.029911 0.040437 -0.001208 0.000017 0.000003 -1.437262 0.147244 -18.978727 -5.505425 0.174621 0.309539 -5.433239 0.089256 0.235491 0.000404 0.000011 -0.000044 0.000000 0.000000 0.000000 0.000000 0.000000 0.000000 -6.129765 -12.880083 20.025827 -0.143149 -1.099709 4.622553 1.523672 -9.308943 15.435562 -1.411237 1.247905 -16.646646 0.000000 0.000000 0.000000 0.000000 0.000000 0.000000 0.000000 0.000000 0.000000 2.884995 -1.746640 13.391708 0.142672 0.723263 10.065162 -0.594697 2.145430 16.151627 0.547173 -0.934497 -19.734142 0.000000 0.000000 0.000000 0.000000 0.000000 0.000000 0.000000 0.000000 0.000000 
